<svg width="150" height="150" viewBox="0 0 150 150" fill="none" xmlns="http://www.w3.org/2000/svg">
<path opacity="0.15" d="M107.375 19L69.875 50.25H57.375C50.4714 50.25 44.875 55.8464 44.875 62.75V87.75C44.875 94.6537 50.4714 100.25 57.375 100.25H69.875L107.375 131.5V19Z" fill="black"/>
<path d="M69.875 50.25L107.375 19V131.5L69.875 100.25H57.375C50.4714 100.25 44.875 94.6537 44.875 87.75V62.75C44.875 55.8464 50.4714 50.25 57.375 50.25H69.875Z" stroke="#E00000" stroke-width="10" stroke-linecap="round" stroke-linejoin="round"/>
<g clip-path="url(#clip0_3_20)">
<path d="M73.2114 44.3125C71.0365 44.3125 69.2856 46.0634 69.2856 48.2383V67.8672H49.6567C47.4819 67.8672 45.731 69.6181 45.731 71.793V79.6445C45.731 81.8194 47.4819 83.5703 49.6567 83.5703H69.2856V103.199C69.2856 105.374 71.0365 107.125 73.2114 107.125H81.063C83.2379 107.125 84.9888 105.374 84.9888 103.199V83.5703H104.618C106.793 83.5703 108.543 81.8194 108.543 79.6445V71.793C108.543 69.6181 106.793 67.8672 104.618 67.8672H84.9888V48.2383C84.9888 46.0634 83.2379 44.3125 81.063 44.3125H73.2114Z" fill="#E00000"/>
</g>
<defs>
<clipPath id="clip0_3_20">
<rect width="62.8125" height="62.8125" fill="white" transform="translate(43 44.3125)"/>
</clipPath>
</defs>
</svg>
